<svg xmlns="http://www.w3.org/2000/svg" width="15" height="20" fill="none"><path d="M5.5 20c-1.533 0-2.833-.533-3.9-1.6C.533 17.333 0 16.033 0 14.5V4c0-1.1.392-2.042 1.175-2.825C1.958.392 2.9 0 4 0s2.042.392 2.825 1.175C7.608 1.958 8 2.9 8 4v8H6.5V4c0-.7-.242-1.292-.725-1.775C5.292 1.742 4.7 1.5 4 1.5s-1.292.242-1.775.725C1.742 2.708 1.5 3.3 1.5 4v10.5c0 1.1.392 2.042 1.175 2.825C3.458 18.108 4.4 18.5 5.5 18.5c.483 0 .938-.08 1.363-.238A3.78 3.78 0 0 0 8 17.6v1.8a6.64 6.64 0 0 1-1.2.438c-.417.109-.85.163-1.3.162Zm4.5-1v-3H7v-2h3v-3h2v3h3v2h-3v3h-2Zm-4.5-4.5V16c-.7 0-1.292-.242-1.775-.725C3.242 14.792 3 14.2 3 13.5V4h1.5v9.5c0 .283.096.521.288.713.192.192.43.288.712.287Zm4-5.5V4H11v5H9.5Z" fill="#D8B27A"/></svg>