<svg xmlns="http://www.w3.org/2000/svg" width="105" height="12" fill="none"><g clip-path="url(#a)"><path d="M15.516 0h.98c.988.078 2.048.257 2.804.927.62.537.9 1.345.948 2.128.05.994-.017 1.99.034 2.983.131.404.688.206 1.015.252v2.4c-.861-.001-1.723.001-2.584-.001-.379.006-.795-.118-1.01-.438-.142-.189-.143-.43-.16-.651-.967 1.37-3.144 1.65-4.516.696-1.037-.706-1.333-2.207-.678-3.244.386-.603 1.051-.979 1.729-1.213 1.032-.347 2.136-.446 3.224-.443-.013-.33-.017-.701-.265-.958-.276-.277-.713-.302-1.086-.276-.206.02-.46.066-.56.263-.042.172-.035.35-.045.526-.913-.018-1.826-.003-2.738-.007.022-.658-.13-1.405.33-1.962.61-.744 1.664-.879 2.578-.982Zm-.106 5.352c-.287.143-.52.445-.444.769.056.37.445.613.819.599.893 0 1.636-.848 1.547-1.692-.65-.001-1.338.016-1.922.324ZM50.105 0h.98c.99.078 2.05.257 2.806.927.667.577.934 1.46.959 2.299.026.937-.023 1.875.023 2.811.13.405.688.207 1.015.253v2.4c-.86-.001-1.72.001-2.581-.001-.381.006-.8-.118-1.015-.44-.14-.19-.142-.428-.155-.65-.984 1.389-3.21 1.66-4.577.655-.993-.722-1.262-2.19-.616-3.207.387-.6 1.051-.974 1.727-1.209 1.031-.346 2.134-.445 3.222-.442-.002-.398-.046-.894-.46-1.103a1.666 1.666 0 0 0-1.282-.032c-.273.122-.185.452-.204.683h-2.748c.02-.675-.132-1.452.368-2.009C48.19.231 49.208.103 50.105 0ZM50 5.353c-.284.142-.516.44-.445.761.053.378.451.623.83.606.89-.006 1.628-.85 1.538-1.692-.65-.001-1.339.016-1.923.325ZM0 .166 8.302.165c.33-.002.69.034.952.248.268.223.337.585.34.91.003 1.518-.002 3.035.001 4.553-.015.167.065.366.257.398.256.031.516.012.775.016v2.4H7.875c-.345 0-.729-.055-.975-.31-.235-.25-.276-.606-.275-.928 0-1.492.003-2.982 0-4.474.022-.182-.09-.393-.3-.403-.774-.024-1.55-.002-2.324-.01V8.69c-.99-.005-1.983.01-2.974-.009.013-2.038.003-4.077.005-6.115H.002C-.002 1.766 0 .966 0 .166Zm22.454.006C23.357.156 24.26.17 25.162.165c.332-.002.696.034.959.249.267.223.335.585.338.91.003.634 0 1.269 0 1.904h2.71c0-1.02.006-2.037-.003-3.056.99-.015 1.982-.002 2.973-.006.002 1.904-.003 3.808.002 5.712-.017.168.066.367.258.396.256.03.515.012.773.016v2.4h-2.756c-.344 0-.727-.056-.972-.31-.238-.252-.274-.61-.274-.935.002-.631-.003-1.264.003-1.895-.904-.012-1.809-.003-2.713-.005V8.69c-.99-.002-1.98.005-2.971-.004.004-1.901.002-3.803 0-5.705.01-.156-.049-.346-.224-.391-.267-.047-.542-.014-.812-.032.01-.795.007-1.59.001-2.386Zm13.37-.006 6.982-.001c.343 0 .724.053.972.305.24.25.28.61.28.938-.007 1.652-.018 3.306-.024 4.959.324.007.688.011.944.232.27.23.32.6.326.926v3.15h-2.667c-.006-.556.011-1.112-.007-1.668.003-.17-.149-.331-.331-.314a697.257 697.257 0 0 0-4.747 0c-.185-.016-.335.149-.33.32-.017.554 0 1.108-.006 1.663h-2.668v-3.14c.006-.329.054-.701.322-.934.262-.226.636-.232.968-.232.924-1.048.938-2.503.948-3.804l-.962-.001V.166Zm3.751 2.41c.017 1.299-.032 2.742-.926 3.797h2.439c0-1.132.002-2.263 0-3.394.015-.168-.07-.365-.26-.398-.416-.032-.835-.017-1.253-.005ZM70.303.226c1.218-.182 2.513.047 3.546.705a4.227 4.227 0 0 1 1.733 2.124c.446 1.24.293 2.675-.45 3.78-.584.88-1.518 1.527-2.557 1.82-1.37.387-2.92.214-4.126-.538a4.238 4.238 0 0 1-1.821-2.312c-.39-1.237-.213-2.649.552-3.722.706-1.01 1.88-1.676 3.123-1.856Zm.163 1.398a3.01 3.01 0 0 0-1.534.823c-1.012 1.01-1.09 2.72-.234 3.843.431.576 1.097.98 1.82 1.117 1.117.224 2.355-.208 3.02-1.108.916-1.202.76-3.076-.443-4.05-.709-.593-1.715-.816-2.629-.625ZM81.465.264c1.053-.228 2.228-.078 3.113.542.973.672 1.485 1.807 1.617 2.926.164 1.315-.064 2.749-.95 3.802-1.055 1.29-3.098 1.704-4.603.934a3.054 3.054 0 0 1-1.082-.967c.075 1.498.017 3 .035 4.499h-1.677c-.002-3.311.002-6.622-.002-9.933.013-.154-.079-.33-.252-.351-.275-.03-.552-.01-.827-.014-.002-.455 0-.91-.002-1.364.563-.003 1.126-.005 1.688 0 .303.01.65.087.825.349.189.291.105.653.115.976.43-.708 1.173-1.218 2.002-1.399Zm.33 1.324c-.666.059-1.306.397-1.688.93-.479.66-.595 1.5-.552 2.287.064.857.416 1.753 1.156 2.277.855.609 2.145.508 2.91-.195.659-.592.918-1.49.919-2.334.006-.835-.22-1.723-.842-2.336-.484-.487-1.214-.703-1.902-.629Zm16.159-.028C99.366.087 101.82-.218 103.66.644c.452.22.865.598.951 1.097.046.366.012.736.022 1.103h-1.505c-.013-.285.066-.63-.18-.849-.32-.295-.777-.394-1.203-.444-1.084-.101-2.23.387-2.798 1.296-.651 1.04-.633 2.472.128 3.455.612.789 1.671 1.173 2.676 1.12.964-.04 1.864-.496 2.549-1.134.227.382.469.755.699 1.135-1.723 1.805-4.982 1.931-6.84.25-1.733-1.551-1.816-4.451-.207-6.113ZM56.916.337C58.323.335 59.73.336 61.139.336c.869-.022 1.808.022 2.543.521 1.04.682 1.097 2.355.115 3.107-.164.128-.353.219-.539.312.51.114.994.383 1.29.808.439.61.476 1.432.206 2.114-.249.615-.833 1.052-1.47 1.258-.743.262-1.544.237-2.322.234-.66-.002-1.32.002-1.979-.001-.272-.003-.58-.032-.777-.234-.197-.201-.208-.494-.21-.754v-6c-.358.001-.715-.001-1.073.004-.016-.456-.005-.912-.007-1.368Zm2.758 1.117v2.353c.607-.005 1.214.011 1.82-.01.473-.02.992-.214 1.2-.651.204-.437.163-1.027-.23-1.357-.316-.262-.751-.326-1.155-.334-.545-.004-1.09 0-1.635 0Zm0 3.429v2.232c-.006.148.007.335.17.405.281.055.574.015.86.026.639-.01 1.329.074 1.908-.246.78-.407.823-1.637.09-2.108-.38-.251-.856-.307-1.306-.31h-1.722ZM87.332.338c.562-.004 1.124-.002 1.686-.002.296 0 .628.05.838.271.203.216.232.524.236.802.002.73-.001 1.46.001 2.191.522-.028 1.175.12 1.566-.307.734-.977 1.422-1.985 2.156-2.963.624.013 1.247.002 1.87.007-.676.935-1.355 1.87-2.033 2.805-.305.4-.561.865-1.018 1.13.293.165.522.412.691.693l1.214 1.976c.23.493.855.358 1.305.382-.005.454-.001.907-.003 1.362-.557-.01-1.114.024-1.668-.022a1.093 1.093 0 0 1-.87-.555c-.57-.937-1.114-1.89-1.685-2.826-.34-.475-1.022-.27-1.525-.316 0 1.238-.002 2.476 0 3.715-.56.008-1.118.002-1.678.004-.003-2.207.003-4.413-.002-6.62.013-.156-.083-.333-.26-.35-.272-.028-.547-.009-.82-.013-.001-.455.001-.91-.001-1.364Z" fill="#999"/></g><defs><clipPath id="a"><path fill="#fff" d="M0 0h105v12H0z"/></clipPath></defs></svg>