<svg xmlns="http://www.w3.org/2000/svg" width="105" height="12" viewBox="0 0 105 12" fill="none">
<g clip-path="url(#clip0_250_2367)">
<path d="M15.5163 0H16.4956C17.4843 0.0777931 18.5435 0.256552 19.2999 0.926897C19.9203 1.464 20.1999 2.27172 20.2481 3.05545C20.2972 4.04855 20.2309 5.04497 20.2817 6.03807C20.4133 6.44193 20.9701 6.24414 21.297 6.28966V8.68966C20.4357 8.68883 19.5744 8.69131 18.713 8.68883C18.3344 8.69462 17.9179 8.57131 17.7037 8.25103C17.5608 8.06234 17.56 7.82152 17.5436 7.59972C16.5756 8.96938 14.3994 9.2491 13.027 8.29572C11.9901 7.58979 11.6941 6.08938 12.3489 5.05241C12.7353 4.4491 13.4004 4.07338 14.0776 3.83917C15.1102 3.49159 16.2142 3.3931 17.3018 3.39559C17.2889 3.06621 17.2855 2.69462 17.0368 2.43807C16.7606 2.16083 16.3243 2.136 15.9509 2.16166C15.7452 2.18234 15.4905 2.22786 15.3907 2.42483C15.3486 2.59697 15.3563 2.77572 15.346 2.95117C14.433 2.93297 13.52 2.94786 12.6079 2.94372C12.6303 2.28579 12.4789 1.53931 12.9375 0.981517C13.5484 0.238345 14.6017 0.103448 15.5163 0ZM15.4096 5.352C15.1231 5.49517 14.8899 5.79724 14.9656 6.12083C15.0216 6.49159 15.4114 6.73407 15.7848 6.72C16.678 6.72 17.4214 5.87172 17.332 5.02759C16.6814 5.02676 15.9939 5.04414 15.4096 5.352ZM50.105 0H51.0859C52.0746 0.0777931 53.1347 0.256552 53.8911 0.926897C54.5579 1.50372 54.8247 2.38676 54.8496 3.22593C54.8763 4.16276 54.8273 5.10124 54.8729 6.03724C55.0037 6.44193 55.5613 6.24414 55.8882 6.28966V8.68966C55.0278 8.68883 54.1673 8.69131 53.3068 8.68883C52.9256 8.69462 52.5074 8.57131 52.2923 8.24855C52.1521 8.05986 52.1503 7.82069 52.1366 7.59972C51.153 8.98759 48.9278 9.25821 47.5605 8.25434C46.5667 7.53186 46.2982 6.06372 46.9436 5.04745C47.3308 4.44662 47.9951 4.07255 48.6706 3.83834C49.7023 3.49159 50.8054 3.3931 51.893 3.39559C51.8905 2.99752 51.8466 2.50179 51.4335 2.29324C51.0412 2.11448 50.5507 2.0971 50.1506 2.26097C49.8778 2.38345 49.9656 2.71283 49.9466 2.94372C49.0302 2.9429 48.1147 2.9429 47.1991 2.94372C47.2181 2.26924 47.0666 1.49214 47.5674 0.935172C48.1887 0.230897 49.2084 0.102621 50.105 0ZM50 5.35283C49.716 5.49517 49.4837 5.7931 49.5551 6.11421C49.6085 6.49159 50.006 6.73738 50.3846 6.72C51.2744 6.71421 52.0126 5.86924 51.9232 5.02759C51.2726 5.02676 50.5843 5.04414 50 5.35283ZM0.00021512 0.165517C2.76751 0.16469 5.53481 0.166345 8.3021 0.16469C8.63253 0.163034 8.99221 0.199448 9.25379 0.412966C9.52226 0.636414 9.5911 0.998069 9.59368 1.32331C9.59712 2.8411 9.59196 4.35807 9.5954 5.87586C9.57991 6.04303 9.65994 6.24248 9.85182 6.27393C10.1082 6.30538 10.3681 6.28552 10.6271 6.28966V8.68966C9.70985 8.68966 8.79258 8.68966 7.87531 8.69048C7.53026 8.69048 7.14648 8.63503 6.90039 8.38014C6.66462 8.13021 6.62417 7.77434 6.62503 7.45159C6.62503 5.96028 6.62761 4.46979 6.62417 2.97848C6.64655 2.79559 6.53468 2.58455 6.32559 2.57545C5.55116 2.55145 4.77587 2.57297 4.00144 2.56552C4.00058 4.60717 4.0023 6.648 4.00144 8.68966C3.01017 8.68469 2.01804 8.70041 1.02676 8.68138C1.03967 6.64303 1.03021 4.60386 1.03193 2.56552H0.0010756C-0.000645359 1.76524 0.00021512 0.965793 0.00021512 0.165517ZM22.4544 0.172138C23.357 0.156414 24.2597 0.170483 25.1623 0.16469C25.4944 0.163034 25.8576 0.198621 26.1209 0.413793C26.3876 0.637241 26.4565 0.998897 26.459 1.32331C26.4625 1.95807 26.4582 2.59283 26.4599 3.22759H29.1695C29.1687 2.20883 29.1747 1.1909 29.1661 0.172138C30.1565 0.157241 31.1478 0.169655 32.1391 0.165517C32.1408 2.06979 32.1365 3.97407 32.1408 5.87834C32.1244 6.04552 32.207 6.24497 32.3989 6.27393C32.6553 6.30455 32.9143 6.28635 33.1716 6.28966V8.68966H30.4155C30.0722 8.69048 29.6893 8.63421 29.444 8.38014C29.2065 8.12772 29.1695 7.77021 29.1695 7.44497C29.1721 6.81352 29.167 6.18124 29.173 5.54979C28.2686 5.53821 27.3643 5.54731 26.4599 5.54483C26.459 6.59338 26.4608 7.6411 26.4599 8.68966C25.4695 8.688 24.4791 8.69462 23.4887 8.68552C23.493 6.78455 23.4913 4.88276 23.4895 2.98097C23.4999 2.82455 23.4405 2.63503 23.2649 2.58952C22.9982 2.54317 22.7228 2.57628 22.4535 2.55807C22.4621 1.76276 22.4604 0.967448 22.4544 0.172138ZM35.8236 0.166345C38.1512 0.16469 40.4788 0.166345 42.8064 0.16469C43.1489 0.16469 43.5301 0.218483 43.7779 0.470069C44.0188 0.720828 44.0575 1.08083 44.0575 1.40772C44.0507 3.06041 44.0403 4.71393 44.0343 6.36662C44.3578 6.37407 44.7218 6.37821 44.9782 6.59917C45.2476 6.82841 45.2983 7.19834 45.3044 7.52524V10.6759H42.6369C42.6309 10.1189 42.6481 9.56276 42.63 9.00662C42.6334 8.83614 42.4811 8.67559 42.2987 8.69297C40.7163 8.688 39.1339 8.68717 37.5523 8.69297C37.3665 8.67724 37.2167 8.84193 37.2228 9.01324C37.2047 9.5669 37.2219 10.1214 37.2159 10.6759H34.5484V7.53517C34.5536 7.20745 34.6017 6.83503 34.8702 6.60248C35.1318 6.37572 35.5061 6.36993 35.8382 6.36993C36.7624 5.32221 36.7762 3.86731 36.7865 2.56634C36.4647 2.56552 36.1437 2.56552 35.8236 2.56469C35.8228 1.76524 35.8228 0.965793 35.8236 0.166345ZM39.5753 2.57628C39.5925 3.87476 39.5435 5.31807 38.6494 6.37324C39.4617 6.37159 40.2749 6.37324 41.088 6.37241C41.0872 5.2411 41.0897 4.10979 41.0872 2.97931C41.1027 2.81131 41.0175 2.61434 40.8282 2.58124C40.4117 2.54897 39.9926 2.56386 39.5753 2.57628ZM70.303 0.226759C71.5205 0.0438621 72.8164 0.273103 73.849 0.931035C74.6467 1.43255 75.2714 2.18731 75.582 3.05545C76.0277 4.29434 75.8746 5.73021 75.132 6.83421C74.5477 7.71476 73.6141 8.36193 72.5746 8.65407C71.2047 9.04221 69.6542 8.86924 68.4495 8.11697C67.5847 7.584 66.9239 6.75228 66.6279 5.80469C66.2372 4.56828 66.4153 3.15641 67.1803 2.08303C67.8859 1.07338 69.0596 0.407172 70.303 0.226759ZM70.4665 1.62372C69.8856 1.74455 69.3401 2.03007 68.9322 2.44717C67.9203 3.45766 67.8429 5.16662 68.6982 6.28966C69.1293 6.86648 69.7953 7.27034 70.5189 7.4069C71.635 7.63117 72.8732 7.19917 73.5375 6.29876C74.4539 5.0971 74.2973 3.22262 73.0952 2.24938C72.3862 1.656 71.3803 1.43338 70.4665 1.62372ZM81.4642 0.264C82.5174 0.0364138 83.692 0.186207 84.5766 0.806069C85.5498 1.47807 86.0618 2.61269 86.1943 3.73159C86.3578 5.04662 86.1297 6.48083 85.2434 7.53434C84.1894 8.82455 82.1457 9.23835 80.6407 8.46786C80.2002 8.24193 79.8388 7.896 79.5591 7.50124C79.634 8.99917 79.5763 10.5004 79.5935 12H77.9165C77.9147 8.68883 77.9191 5.37848 77.9147 2.06731C77.9277 1.91338 77.8364 1.73793 77.6635 1.71559C77.3881 1.68662 77.1111 1.70648 76.8357 1.70152C76.834 1.24717 76.8366 0.792828 76.834 0.338483C77.3967 0.335172 77.9595 0.33269 78.5222 0.338483C78.8251 0.347586 79.1719 0.424552 79.3474 0.686897C79.5359 0.978207 79.4516 1.33986 79.4619 1.66345C79.8913 0.955034 80.6347 0.445241 81.4642 0.264ZM81.7946 1.58814C81.1278 1.6469 80.4884 1.98455 80.1064 2.51834C79.6271 3.17876 79.5109 4.01793 79.554 4.80497C79.6176 5.66234 79.9696 6.55779 80.7096 7.08248C81.5649 7.69076 82.8548 7.58979 83.6197 6.88717C84.2788 6.29545 84.5378 5.39752 84.5387 4.55255C84.5447 3.71752 84.3184 2.82952 83.6972 2.2171C83.2127 1.73048 82.483 1.51448 81.7946 1.58814ZM97.9527 1.56C99.3656 0.0868966 101.821 -0.218483 103.661 0.643862C104.113 0.864 104.526 1.24221 104.612 1.74124C104.658 2.10703 104.624 2.47697 104.634 2.84441C104.132 2.84524 103.63 2.84524 103.129 2.84441C103.116 2.5589 103.195 2.21379 102.949 1.99531C102.629 1.69986 102.172 1.60055 101.746 1.5509C100.662 1.44993 99.5162 1.93821 98.9483 2.8469C98.2969 3.88634 98.3149 5.3189 99.0756 6.30207C99.6883 7.09076 100.747 7.47476 101.752 7.42262C102.716 7.3829 103.616 6.92607 104.301 6.288C104.528 6.66952 104.77 7.04276 105 7.42262C103.277 9.22759 100.018 9.35421 98.1609 7.67338C96.4271 6.12166 96.3436 3.22179 97.9527 1.56ZM56.9157 0.336828C58.3234 0.335172 59.7311 0.336 61.1389 0.336C62.008 0.314483 62.9467 0.358345 63.6824 0.857379C64.7228 1.53931 64.7787 3.21186 63.7969 3.96414C63.6325 4.09159 63.4441 4.18262 63.2582 4.27614C63.7685 4.38952 64.2521 4.65931 64.5481 5.08386C64.9869 5.69379 65.0239 6.51559 64.7537 7.19752C64.5051 7.81324 63.9208 8.25021 63.2832 8.45628C62.5406 8.71779 61.7395 8.69297 60.9625 8.68966C60.3025 8.688 59.6425 8.69214 58.9834 8.68883C58.7106 8.68634 58.4034 8.65738 58.2055 8.45545C58.0093 8.25352 57.9981 7.96138 57.9964 7.70069C57.9956 5.70124 57.9973 3.70097 57.9955 1.70152C57.6376 1.70234 57.2805 1.69986 56.9234 1.70483C56.907 1.24883 56.9182 0.792828 56.9157 0.336828ZM59.6743 1.45407V3.8069C60.281 3.80193 60.8876 3.81848 61.4943 3.79779C61.9667 3.77793 62.4855 3.58262 62.6946 3.14565C62.8977 2.70869 62.8573 2.11862 62.4649 1.78924C62.1482 1.5269 61.7128 1.46317 61.3092 1.4549C60.7637 1.45076 60.219 1.4549 59.6743 1.45407ZM59.6743 4.88276C59.6735 5.62676 59.6752 6.37076 59.6735 7.11476C59.6683 7.2629 59.6812 7.44993 59.8439 7.52028C60.1252 7.5749 60.4178 7.53517 60.7043 7.54593C61.3428 7.53517 62.0329 7.61959 62.612 7.30014C63.3916 6.89297 63.4355 5.66317 62.7024 5.19228C62.3229 4.94069 61.8462 4.88524 61.3962 4.88276C60.8222 4.88193 60.2483 4.88276 59.6743 4.88276ZM87.3318 0.338483C87.8937 0.334345 88.4556 0.336 89.0183 0.336C89.3135 0.336828 89.6456 0.385655 89.8556 0.607448C90.0587 0.823448 90.0879 1.13131 90.0922 1.40938C90.0939 2.13931 90.0905 2.86924 90.0931 3.6C90.6145 3.57186 91.2685 3.72 91.6591 3.29297C92.3931 2.31641 93.0815 1.30759 93.8155 0.330207C94.4385 0.343448 95.0623 0.331862 95.6853 0.336828C95.009 1.272 94.3301 2.20634 93.652 3.14152C93.3474 3.5429 93.091 4.00717 92.6341 4.272C92.9266 4.43669 93.1564 4.68414 93.325 4.96469C93.7303 5.62262 94.1339 6.28221 94.5392 6.94097C94.7681 7.43421 95.3936 7.29931 95.8437 7.32331C95.8385 7.77683 95.8428 8.23034 95.8411 8.68469C95.2843 8.67476 94.7268 8.70869 94.1726 8.66317C93.8018 8.64083 93.4791 8.41572 93.3027 8.10786C92.7322 7.17103 92.1892 6.21848 91.6179 5.28166C91.2788 4.80745 90.5956 5.01186 90.0931 4.96552C90.0922 6.20441 90.0905 7.44248 90.0939 8.68138C89.5338 8.68883 88.9745 8.68303 88.4152 8.68469C88.4117 6.47834 88.4177 4.272 88.4126 2.06565C88.4255 1.90924 88.33 1.73214 88.1536 1.71476C87.8808 1.68745 87.6063 1.70648 87.3335 1.70152C87.3318 1.24717 87.3344 0.792828 87.3318 0.338483Z" fill="#999999"/>
</g>
<defs>
<clipPath id="clip0_250_2367">
<rect width="105" height="12" fill="white"/>
</clipPath>
</defs>
</svg>